# AST/ASF file generated using VICON BodyLanguage
# -----------------------------------------------
:version 1.10
:name VICON
:units
  mass 1.0
  length 0.45
  angle deg
:documentation
   .ast/.asf automatically generated from VICON data using
   VICON BodyBuilder and BodyLanguage model FoxedUp or BRILLIANT.MOD
:root
   order TX TY TZ RX RY RZ
   axis XYZ
   position 0 0 0  
   orientation 0 0 0 
:bonedata
  begin
     id 1 
     name lhipjoint
     direction 0.623529 -0.717805 0.309788 
     length 2.23224 
     axis 0 0 0  XYZ
  end
  begin
     id 2 
     name lfemur
     direction 0.34202 -0.939693 0  
     length 7.11402  
     axis 0 0 20  XYZ
    dof rx ry rz
    limits (-160.0 20.0)
           (-70.0 70.0)
           (-60.0 70.0)
  end
  begin
     id 3 
     name ltibia
     direction 0.34202 -0.939693 0   
     length 6.78496   
     axis 0 0 20   XYZ
    dof rx
    limits (-10.0 170.0)
  end
  begin
     id 4 
     name lfoot
     direction 0.125078 -0.343648 0.930732   
     length 1.84054   
     axis -90 7.62852e-016 20   XYZ
    dof rx rz
    limits (-45.0 90.0)
           (-70.0 20.0)
  end
  begin
     id 5 
     name ltoes
     direction 1.53565e-011 -4.21893e-011 1   
     length 0.916474   
     axis -90 7.62852e-016 20   XYZ
    dof rx
    limits (-90.0 20.0)
  end
  begin
     id 6 
     name rhipjoint
     direction -0.564688 -0.757748 0.327026   
     length 2.11457  
     axis 0 0 0  XYZ 
  end
  begin
     id 7 
     name rfemur
     direction -0.34202 -0.939693 0   
     length 7.14609   
     axis 0 0 -20   XYZ
    dof rx ry rz
    limits (-160.0 20.0)
           (-70.0 70.0)
           (-70.0 60.0)
  end
  begin
     id 8 
     name rtibia
     direction -0.34202 -0.939693 0   
     length 6.78101   
     axis 0 0 -20   XYZ
    dof rx
    limits (-10.0 170.0)
 end
 begin
     id 9 
     name rfoot
     direction -0.0992671 -0.272734 0.956955   
     length 1.96168  
     axis -90 -7.62852e-016 -20   XYZ
    dof rx rz
    limits (-45.0 90.0)
           (-20.0 70.0)
  end
  begin
     id 10 
     name rtoes
     direction -1.5356e-011 -4.21891e-011 1   
     length 0.982933   
     axis -90 -7.62852e-016 -20   XYZ
    dof rx
    limits (-90.0 20.0)
  end
  begin
     id 11 
     name lowerback
     direction -0.00596953 0.998668 0.0512524   
     length 1.87557   
     axis 0 0 0   XYZ
    dof rx ry rz
    limits (-20.0 45.0)
           (-30.0 30.0)
           (-30.0 30.0)
  end
  begin
     id 12 
     name upperback
     direction 0.00584879 0.999652 0.0257308   
     length 1.87883   
     axis 0 0 0   XYZ
    dof rx ry rz
    limits (-20.0 45.0)
           (-30.0 30.0)
           (-30.0 30.0)
  end
  begin
     id 13 
     name thorax
     direction 0.010104 0.999947 0.00178881   
     length 1.87779   
     axis 0 0 0   XYZ
    dof rx ry rz
    limits (-20.0 45.0)
           (-30.0 30.0)
           (-30.0 30.0)
  end
  begin
     id 14 
     name lowerneck
     direction 0.0120771 0.995934 -0.0892773   
     length 1.40897   
     axis 0 0 0   XYZ
    dof rx ry rz
    limits (-20.0 45.0)
           (-30.0 30.0)
           (-30.0 30.0)
  end
  begin
     id 15 
     name upperneck
     direction -0.030568 0.999465 -0.0116366   
     length 1.38661   
     axis 0 0 0   XYZ
    dof rx ry rz
    limits (-20.0 45.0)
           (-30.0 30.0)
           (-30.0 30.0)
  end
  begin
     id 16
     name head
     direction -0.0170715 0.999854 -0.00104426  
     length 1.47052  
     axis 0 0 0   XYZ
    dof rx ry rz
    limits (-20.0 45.0)
           (-30.0 30.0)
           (-30.0 30.0)
  end
  begin
     id 17 
     name lclavicle
     direction 0.977763 0.206143 0.038532  
     length 3.02424  
     axis 0 0 0   XYZ
    dof ry rz
    limits (-20.0 10.0)
           (0.0 20.0)
  end
  begin
     id 18 
     name lhumerus
     direction 1 -4.48965e-011 -2.62654e-027   
     length 4.68382   
     axis 180 -30 -90   XYZ
    dof rx ry rz
    limits (-60.0 90.0)
           (-90.0 90.0)
           (-90.0 90.0)
  end
  begin
     id 19
     name lradius
     direction 1 -4.48973e-011 -1.54954e-027   
     length 2.98124   
     axis 180 -30 -90   XYZ
    dof rx
    limits (-10.0 170.0)
  end
  begin
     id 20
     name lwrist
     direction 1 -4.48959e-011 7.20928e-028   
     length 1.49062   
     axis -5.52449e-016 90 90   XYZ
    dof ry
    limits (-180.0 0.0)
 end
  begin
     id 21 
     name lhand
     direction 1 -4.48971e-011 1.44186e-027   
     length 0.707595   
     axis -9.20027e-016 90 90   XYZ
    dof rx rz
    limits (-90.0 90.0)
           (-45.0 45.0)
  end
  begin
     id 22 
     name lfingers
     direction 1 -4.48985e-011 2.88371e-027   
     length 0.570481   
     axis -1.84005e-015 90 90   XYZ
    dof rx
    limits (0.0 90.0)
  end
  begin
     id 23
     name lthumb
     direction 0.707107 -6.34929e-011 0.707107   
     length 0.819101   
     axis -90 45 2.85299e-015   XYZ
    dof rx rz
    limits (-45.0 45.0)
           (-45.0 45.0)
  end
  begin
     id 24 
     name rclavicle
     direction -0.958661 0.284411 -0.00895327   
     length 3.11921  
     axis 0 0 0   XYZ 
    dof ry rz
    limits (-10.0 20.0)
           (-20.0 0.0)
  end
  begin
     id 25 
     name rhumerus
     direction -1 -4.48963e-011 -4.22193e-027  
     length 4.75876   
     axis 180 30 90   XYZ
    dof rx ry rz
    limits (-90.0 60.0)
           (-90.0 90.0)
           (-90.0 90.0)
  end
  begin
     id 26 
     name rradius
     direction -1 -4.48968e-011 -1.07616e-027   
     length 2.93293   
     axis 180 30 90   XYZ
    dof rx
    limits (-10.0 170.0)
  end
  begin
     id 27 
     name rwrist
     direction -1 -4.48965e-011 7.20928e-028   
     length 1.46647   
     axis -5.52449e-016 -90 -90   XYZ
    dof ry
    limits (-180.0 0.0)
  end
  begin
     id 28
     name rhand
     direction -1 -4.48971e-011 1.44186e-027   
     length 0.831748   
     axis -9.20027e-016 -90 -90   XYZ
    dof rx rz
    limits (-90.0 90.0)
           (-45.0 45.0)
  end
  begin
     id 29
     name rfingers
     direction -1 -4.48961e-011 2.88371e-027   
     length 0.670577   
     axis -1.84005e-015 -90 -90   XYZ
    dof rx
    limits (0.0 90.0)
  end
  begin
     id 30
     name rthumb
     direction -0.707107 -6.34929e-011 0.707107   
     length 0.962818   
     axis -90 -45 -2.85299e-015   XYZ
    dof rx rz
    limits (-45.0 45.0)
           (-45.0 45.0)
  end
:hierarchy
  begin
    root lhipjoint rhipjoint lowerback
    lhipjoint lfemur
    lfemur ltibia
    ltibia lfoot
    lfoot ltoes
    rhipjoint rfemur
    rfemur rtibia
    rtibia rfoot
    rfoot rtoes
    lowerback upperback
    upperback thorax
    thorax lowerneck lclavicle rclavicle
    lowerneck upperneck
    upperneck head
    lclavicle lhumerus
    lhumerus lradius
    lradius lwrist
    lwrist lhand lthumb
    lhand lfingers
    rclavicle rhumerus
    rhumerus rradius
    rradius rwrist
    rwrist rhand rthumb
    rhand rfingers
  end

#!OML:ASF E:\id_vita\Project 1\Capture day 1\Session 1\Female.ASF
:FULLY-SPECIFIED
:DEGREES
271
root 48.1523 16.6486 -0.678745 -162.88 -85.928 178.356
lowerback -15.0584 0.249083 -3.55233
upperback -6.88142 0.407435 0.569146
thorax 1.11466 0.11897 2.6621
lowerneck 8.97388 -3.5266 -5.0957
upperneck -0.578188 -5.24052 1.10707
head -1.54582 -2.63982 1.42637
rclavicle 1.73311e-014 2.42269e-016
rhumerus -35.6788 -12.2346 -86.9368
rradius 19.9198
rwrist 18.1534
rhand -16.2026 14.3457
rfingers 7.12502
rthumb 10.0047 -15.3965
lclavicle 1.73311e-014 2.42269e-016
lhumerus -37.2173 28.7578 76.1024
lradius 14.1524
lwrist -54.1495
lhand -2.63041 23.0126
lfingers 7.12502
lthumb 23.0686 51.6518
rfemur -21.5158 16.4157 15.6173
rtibia 21.2595
rfoot -6.00729 -19.8517
rtoes -16.3458
lfemur -24.6611 -13.7646 -16.2872
ltibia 27.704
lfoot -18.5672 11.0263
ltoes 3.02309
272
root 48.1578 16.6489 -0.678583 -163.095 -85.7447 178.708
lowerback -15.1243 0.351942 -3.57393
upperback -6.94592 0.540959 0.570534
thorax 1.07112 0.18524 2.69685
lowerneck 9.07644 -3.54772 -5.0942
upperneck -0.607459 -5.27456 1.10935
head -1.57238 -2.65659 1.43182
rclavicle -1.2941e-014 -6.98231e-015
rhumerus -35.8189 -12.1526 -86.8752
rradius 20.0313
rwrist 17.9622
rhand -16.1505 14.3579
rfingers 7.12502
rthumb 10.055 -15.3819
lclavicle -1.2941e-014 -6.98231e-015
lhumerus -37.3362 28.9665 75.9675
lradius 14.0411
lwrist -54.2086
lhand -2.80713 22.9939
lfingers 7.12502
lthumb 22.8991 51.6542
rfemur -21.7484 16.2041 15.5924
rtibia 21.2908
rfoot -6.08946 -19.6921
rtoes -16.6347
lfemur -24.7954 -13.8046 -16.238
ltibia 27.679
lfoot -18.4344 11.2471
ltoes 2.73679
273
root 48.1558 16.6495 -0.680795 -162.712 -85.8087 178.3
lowerback -15.1213 0.342058 -3.58117
upperback -6.91991 0.532145 0.545069
thorax 1.09793 0.180653 2.67294
lowerneck 9.06896 -3.55082 -5.03262
upperneck -0.617069 -5.27195 1.09341
head -1.57602 -2.65482 1.41598
rclavicle 1.96378e-015 -8.15638e-015
rhumerus -35.9012 -11.9198 -87.0057
rradius 20.2172
rwrist 17.6726
rhand -16.1121 14.1442
rfingers 7.12502
rthumb 10.092 -15.5938
lclavicle 1.96378e-015 -8.15638e-015
lhumerus -37.4524 29.3095 75.6639
lradius 13.979
lwrist -54.65
lhand -2.81703 22.9431
lfingers 7.12502
lthumb 22.8896 51.6046
rfemur -21.7108 16.1192 15.6042
rtibia 21.335
rfoot -6.19681 -19.5008
rtoes -16.2357
lfemur -24.7465 -13.8421 -16.254
ltibia 27.6444
lfoot -18.4341 11.1779
ltoes 2.6387
274
root 48.1608 16.6501 -0.684938 -162.574 -85.9013 178.18
lowerback -15.084 0.345851 -3.61537
upperback -6.91666 0.541954 0.540268
thorax 1.08034 0.187089 2.68841
lowerneck 9.09108 -3.53645 -5.08375
upperneck -0.644383 -5.25502 1.21666
head -1.58555 -2.6486 1.46509
rclavicle -2.11139e-014 -2.49723e-015
rhumerus -35.9488 -11.7997 -87.0339
rradius 20.3074
rwrist 17.4955
rhand -16.2254 14.1124
rfingers 7.12502
rthumb 9.9827 -15.6309
lclavicle -2.11139e-014 -2.49723e-015
lhumerus -37.5005 29.5394 75.4709
lradius 13.9658
lwrist -55.1499
lhand -2.62628 23.15
lfingers 7.12502
lthumb 23.0726 51.7887
rfemur -21.7618 16.0948 15.6207
rtibia 21.3722
rfoot -6.26746 -19.3992
rtoes -15.7889
lfemur -24.7673 -13.6394 -16.2701
ltibia 27.6254
lfoot -18.5701 10.9276
ltoes 2.54633
275
root 48.1697 16.6516 -0.691119 -163.511 -85.9288 179.239
lowerback -15.0577 0.378021 -3.61911
upperback -6.99666 0.576483 0.57454
thorax 0.978591 0.205934 2.73115
lowerneck 9.25173 -3.50461 -5.22973
upperneck -0.700745 -5.23108 1.41648
head -1.62581 -2.64049 1.56022
rclavicle -1.24908e-014 1.62631e-014
rhumerus -36.0332 -11.4546 -87.1366
rradius 20.4464
rwrist 17.1718
rhand -16.3271 13.8755
rfingers 7.12502
rthumb 9.88454 -15.8724
lclavicle -1.24908e-014 1.62631e-014
lhumerus -37.6342 29.7213 75.2547
lradius 13.9206
lwrist -55.5234
lhand -2.44603 23.3859
lfingers 7.12502
lthumb 23.2455 52.0029
rfemur -21.962 16.2546 15.6555
rtibia 21.4247
rfoot -6.21189 -19.5214
rtoes -15.2465
lfemur -24.9105 -13.3859 -16.1605
ltibia 27.6007
lfoot -18.6052 10.7274
ltoes 2.47063
276
root 48.1804 16.6552 -0.697622 -163.774 -85.9827 179.7
lowerback -15.0177 0.395964 -3.64731
upperback -7.15673 0.588477 0.583798
thorax 0.786169 0.214175 2.75739
lowerneck 9.47672 -3.50036 -5.27859
upperneck -0.754118 -5.24171 1.49931
head -1.6802 -2.6476 1.60421
rclavicle 3.992e-015 1.44616e-014
rhumerus -36.2341 -10.9111 -87.3969
rradius 20.7727
rwrist 16.5642
rhand -16.2757 13.0995
rfingers 7.12502
rthumb 9.93418 -16.6461
lclavicle 3.992e-015 1.44616e-014
lhumerus -37.983 30.0489 74.7835
lradius 13.7392
lwrist -55.8561
lhand -2.91386 23.1548
lfingers 7.12502
lthumb 22.7966 51.8277
rfemur -22.2354 16.3909 15.6286
rtibia 21.48
rfoot -6.12143 -19.6113
rtoes -14.8081
lfemur -25.1735 -13.1461 -16.0592
ltibia 27.5782
lfoot -18.6643 10.431
ltoes 2.40072
277
root 48.1887 16.6569 -0.703423 -163.239 -86.1015 179.364
lowerback -15.005 0.377653 -3.69612
upperback -7.34593 0.55356 0.571847
thorax 0.580551 0.19867 2.76615
lowerneck 9.72785 -3.49556 -5.2362
upperneck -0.735447 -5.24758 1.47896
head -1.72021 -2.65191 1.59801
rclavicle -9.19534e-015 -8.1129e-015
rhumerus -36.5258 -10.8831 -87.3499
rradius 20.8004
rwrist 16.5558
rhand -16.4737 13.0821
rfingers 7.12502
rthumb 9.74314 -16.6726
lclavicle -9.19534e-015 -8.1129e-015
lhumerus -38.4849 30.4426 74.1825
lradius 13.5781
lwrist -56.2225
lhand -3.41245 22.803
lfingers 7.12502
lthumb 22.3181 51.5341
rfemur -22.5132 16.3933 15.5786
rtibia 21.5337
rfoot -6.02518 -19.72
rtoes -14.6649
lfemur -25.4434 -12.9223 -16.0205
ltibia 27.5554
lfoot -18.7718 10.0853
ltoes 2.40392
278
root 48.1899 16.6564 -0.706048 -163.354 -86.162 179.519
lowerback -15.0338 0.357572 -3.65231
upperback -7.44555 0.512372 0.581542
thorax 0.493919 0.17684 2.74526
lowerneck 10.0399 -3.41947 -5.28032
upperneck -0.700787 -5.1712 1.50755
head -1.76619 -2.61692 1.62123
rclavicle -1.31074e-014 -1.04486e-014
rhumerus -36.7635 -10.917 -87.2202
rradius 20.6614
rwrist 16.5474
rhand -16.5964 13.4032
rfingers 7.12502
rthumb 9.62474 -16.357
lclavicle -1.31074e-014 -1.04486e-014
lhumerus -38.9708 30.878 73.6259
lradius 13.5873
lwrist -56.7946
lhand -3.01427 22.8607
lfingers 7.12502
lthumb 22.7003 51.5455
rfemur -22.5976 16.3622 15.6062
rtibia 21.5743
rfoot -5.9839 -19.7669
rtoes -14.4176
lfemur -25.5021 -12.9438 -15.9697
ltibia 27.5424
lfoot -18.777 10.1029
ltoes 2.33854
279
root 48.1911 16.6572 -0.707617 -163.697 -86.219 179.85
lowerback -14.9305 0.385194 -3.57087
upperback -7.32251 0.549194 0.533915
thorax 0.569619 0.194135 2.65421
lowerneck 9.27905 -3.44148 -5.1293
upperneck -0.345583 -5.13909 1.48339
head -1.51894 -2.60478 1.55379
rclavicle 7.71844e-016 2.73329e-016
rhumerus -36.5035 -11.4672 -86.9409
rradius 20.4703
rwrist 17.1397
rhand -16.2927 14.0169
rfingers 7.12502
rthumb 9.91774 -15.7294
lclavicle 7.71844e-016 2.73329e-016
lhumerus -38.8467 31.4302 73.2845
lradius 13.5191
lwrist -57.4106
lhand -2.70742 22.8599
lfingers 7.12502
lthumb 22.9947 51.5083
rfemur -22.6123 16.4206 15.6389
rtibia 21.6236
rfoot -5.90472 -20.1131
rtoes -14.6515
lfemur -25.4968 -12.9347 -15.9304
ltibia 27.5229
lfoot -18.8777 10.0828
ltoes 2.1394
280
root 48.1932 16.6588 -0.714172 -165.636 -85.8559 181.834
lowerback -14.9869 0.491766 -3.47427
upperback -7.32945 0.675108 0.580455
thorax 0.584383 0.254199 2.66778
lowerneck 9.24422 -3.32961 -5.26672
upperneck -0.149718 -5.00421 1.52833
head -1.45023 -2.54257 1.58214
rclavicle -2.44598e-015 -1.32937e-014
rhumerus -36.5849 -11.6216 -86.68
rradius 20.6034
rwrist 18.0269
rhand -15.7681 14.0397
rfingers 7.12502
rthumb 10.4239 -15.6819
lclavicle -2.44598e-015 -1.32937e-014
lhumerus -39.2263 32.0294 72.6889
lradius 13.4845
lwrist -57.8865
lhand -2.79139 22.5093
lfingers 7.12502
lthumb 22.9142 51.1677
rfemur -22.7505 16.5318 15.7366
rtibia 21.6803
rfoot -6.071 -20.1245
rtoes -14.6238
lfemur -25.4708 -12.8062 -15.8084
ltibia 27.4992
lfoot -18.948 10.3291
ltoes 1.97888
281
root 48.1969 16.6596 -0.715283 -165.621 -85.8663 181.886
lowerback -15.0154 0.518853 -3.41432
upperback -7.33162 0.703926 0.555894
thorax 0.596915 0.266258 2.61276
lowerneck 9.09674 -3.21856 -5.39564
upperneck 0.106665 -4.86007 1.66306
head -1.34123 -2.47849 1.6333
rclavicle 5.46658e-015 4.67144e-015
rhumerus -36.6425 -11.4255 -86.7441
rradius 20.9079
rwrist 18.0753
rhand -15.5317 13.661
rfingers 7.12502
rthumb 10.6519 -16.049
lclavicle 5.46658e-015 4.67144e-015
lhumerus -39.4725 32.5093 72.1796
lradius 13.4095
lwrist -58.587
lhand -2.69565 22.6228
lfingers 7.12502
lthumb 23.006 51.2698
rfemur -22.8921 16.4109 15.7557
rtibia 21.7643
rfoot -6.25134 -19.8675
rtoes -13.924
lfemur -25.5647 -12.9328 -15.7403
ltibia 27.4653
lfoot -18.906 10.4315
ltoes 1.82405
282
root 48.2046 16.66 -0.722254 -165.638 -85.812 181.943
lowerback -14.9087 0.531029 -3.37172
upperback -7.28057 0.718087 0.512089
thorax 0.595444 0.273236 2.54384
lowerneck 8.62557 -3.10061 -5.45454
upperneck 0.35435 -4.67679 1.84162
head -1.18127 -2.39311 1.6767
rclavicle 2.82026e-015 -1.51573e-014
rhumerus -36.5101 -11.2492 -86.9672
rradius 21.0251
rwrist 17.985
rhand -15.6165 13.4844
rfingers 7.12502
rthumb 10.5701 -16.2297
lclavicle 2.82026e-015 -1.51573e-014
lhumerus -39.5416 33.0848 71.6688
lradius 13.2552
lwrist -59.411
lhand -2.54946 23.3482
lfingers 7.12502
lthumb 23.1463 51.9777
rfemur -23.0366 16.2814 15.8132
rtibia 21.864
rfoot -6.24336 -19.7125
rtoes -13.9755
lfemur -25.6257 -13.0919 -15.6475
ltibia 27.4294
lfoot -18.7851 10.6032
ltoes 1.79875
